<svg width="24" height="24" viewBox="0 0 28 10" fill="none" xmlns="http://www.w3.org/2000/svg">
<g clip-path="url(#clip0_1207_1925)">
<path d="M27.9052 3.10128C27.7772 2.73649 27.5391 2.42047 27.2238 2.19691C26.9084 1.97335 26.5314 1.8533 26.1448 1.85336H26.1281C25.599 1.85336 25.1231 2.07299 24.7837 2.42574C24.6097 2.24432 24.4006 2.10007 24.1693 2.00169C23.9379 1.90331 23.689 1.85285 23.4376 1.85336H23.421C22.9551 1.85336 22.5308 2.02307 22.2063 2.30427V2.16118C22.2013 2.09188 22.1702 2.02707 22.1192 1.97983C22.0683 1.93259 22.0013 1.90642 21.9318 1.9066H20.6839C20.6476 1.9066 20.6117 1.91375 20.5782 1.92763C20.5447 1.94151 20.5142 1.96185 20.4886 1.9875C20.4629 2.01315 20.4426 2.0436 20.4287 2.07711C20.4148 2.11062 20.4077 2.14654 20.4077 2.18281V8.95985C20.4077 9.11292 20.5308 9.23605 20.6839 9.23605H21.9318C21.9981 9.23584 22.0621 9.21163 22.112 9.16789C22.1618 9.12415 22.1942 9.06385 22.203 8.99812V4.13289L22.2047 4.08297C22.2138 3.97316 22.2626 3.87043 22.3419 3.7939C22.4212 3.71737 22.5256 3.67227 22.6356 3.667H22.8652C22.9835 3.67385 23.0946 3.72616 23.1752 3.81298C23.2558 3.8998 23.2998 4.01443 23.2979 4.13289L23.3028 8.97482C23.3028 9.1279 23.426 9.25103 23.5791 9.25103H24.827C24.9734 9.25103 25.0932 9.13456 25.0999 8.98813V4.12624C25.0975 4.00765 25.1413 3.8928 25.222 3.80589C25.3027 3.71897 25.414 3.66679 25.5325 3.66035H25.7621C26.0333 3.68364 26.1947 3.8883 26.1947 4.12624L26.1997 8.96151C26.1997 9.11459 26.3245 9.23772 26.4759 9.23772H27.7238C27.7601 9.23772 27.796 9.23057 27.8295 9.21669C27.863 9.20281 27.8935 9.18247 27.9191 9.15682C27.9448 9.13117 27.9651 9.10072 27.979 9.06721C27.9929 9.0337 28 8.99778 28 8.96151V3.76184C28 3.40743 27.9601 3.25602 27.9052 3.10128ZM19.4576 1.9249H18.7421V0.765171C18.7423 0.727973 18.7343 0.691194 18.7185 0.65749C18.7028 0.623787 18.6797 0.594 18.6511 0.570279C18.6224 0.546559 18.5889 0.529498 18.5528 0.520328C18.5168 0.511157 18.4791 0.510106 18.4426 0.517251C17.6523 0.735221 17.8103 1.83173 16.3661 1.9249H16.2263C16.2062 1.92503 16.1861 1.92726 16.1664 1.93156H16.1631C16.1017 1.94519 16.0469 1.97932 16.0076 2.02832C15.9682 2.07733 15.9468 2.13828 15.9468 2.20111V3.44903C15.9468 3.59878 16.0716 3.72357 16.2246 3.72357H16.9784L16.9767 9.01476C16.9767 9.16617 17.0982 9.2893 17.2496 9.2893H18.4826C18.6323 9.2893 18.7554 9.16617 18.7554 9.01642V3.72524H19.4543C19.5275 3.72524 19.5978 3.69614 19.6496 3.64434C19.7014 3.59254 19.7305 3.52229 19.7305 3.44903V2.20111C19.7305 2.12843 19.7018 2.05868 19.6508 2.00697C19.5997 1.95527 19.5303 1.92578 19.4576 1.9249Z" fill="#54C1F0"/>
<path d="M14.9667 1.9248H13.7188C13.6458 1.92524 13.576 1.95454 13.5246 2.00629C13.4731 2.05804 13.4443 2.12804 13.4443 2.20101V4.78005C13.443 4.85684 13.4115 4.93006 13.3567 4.9839C13.302 5.03774 13.2282 5.06791 13.1514 5.0679H12.629C12.5516 5.0679 12.4773 5.03728 12.4225 4.98272C12.3676 4.92816 12.3365 4.8541 12.3361 4.77672L12.3311 2.20101C12.3311 2.16474 12.324 2.12882 12.3101 2.09531C12.2962 2.0618 12.2759 2.03135 12.2502 2.0057C12.2246 1.98006 12.1941 1.95971 12.1606 1.94583C12.1271 1.93195 12.0912 1.9248 12.0549 1.9248H10.807C10.734 1.92524 10.6642 1.95454 10.6128 2.00629C10.5613 2.05804 10.5324 2.12804 10.5324 2.20101V5.02963C10.5324 6.10284 11.2978 6.86823 12.3727 6.86823C12.3727 6.86823 13.1797 6.86823 13.2047 6.87322C13.2747 6.88204 13.3392 6.91604 13.3861 6.96888C13.433 7.02172 13.4591 7.08981 13.4595 7.16045C13.4599 7.23109 13.4346 7.29947 13.3883 7.35285C13.3421 7.40623 13.278 7.44097 13.208 7.45059L13.1864 7.45392L11.3611 7.46058C11.2881 7.46102 11.2183 7.49031 11.1668 7.54206C11.1154 7.59381 11.0865 7.66382 11.0865 7.73678V8.9847C11.0865 9.13612 11.2097 9.25925 11.3611 9.25925H13.4027C14.4775 9.25925 15.2429 8.49386 15.2429 7.41898V2.20101C15.2429 2.12776 15.2138 2.0575 15.162 2.0057C15.1102 1.9539 15.04 1.9248 14.9667 1.9248ZM2.88852 4.21099V4.98138C2.88852 5.05904 2.85767 5.13353 2.80275 5.18845C2.74783 5.24337 2.67334 5.27422 2.59567 5.27422H1.80366V3.73179H2.59567C2.75707 3.73179 2.88852 3.86158 2.88852 4.02297V4.21099ZM2.99834 1.9248H0.269551C0.198196 1.92524 0.129888 1.95378 0.0794319 2.00424C0.0289756 2.05469 0.000436432 2.123 0 2.19436V8.97639C0 9.12614 0.111481 9.24926 0.251248 9.25259H1.52246C1.59572 9.25259 1.66597 9.22349 1.71777 9.17169C1.76957 9.11989 1.79867 9.04964 1.79867 8.97639L1.80366 7.07955H2.99834C3.99667 7.07955 4.69218 6.3857 4.69218 5.38238V3.62364C4.69218 2.62031 3.99667 1.9248 2.99834 1.9248ZM8.06656 7.14111V7.33579C8.06548 7.36531 8.05987 7.39449 8.04992 7.42231C8.02865 7.47848 7.99053 7.5267 7.94078 7.56036C7.89104 7.59402 7.8321 7.61147 7.77205 7.61033H7.25291C7.08985 7.61033 6.9584 7.4872 6.9584 7.33579V7.09951V6.26757C6.9584 6.11782 7.09151 5.99469 7.25291 5.99469H7.77205C7.93511 5.99469 8.06656 6.11782 8.06656 6.26923V7.14111ZM7.86689 1.93146H6.13644C5.98336 1.93146 5.85857 2.04793 5.85857 2.18936V3.36074C5.85857 3.5105 5.99168 3.63529 6.15308 3.63529H7.80033C7.93178 3.65525 8.03328 3.75176 8.04992 3.89818V4.05958C8.03328 4.20101 7.93344 4.30417 7.80865 4.31582H6.99168C5.90516 4.31582 5.13145 5.03795 5.13145 6.05126V7.50218C5.13145 8.50883 5.79701 9.22597 6.87521 9.22597H9.1381C9.54409 9.22597 9.87354 8.91815 9.87354 8.53878V3.805C9.87354 2.65692 9.28286 1.93146 7.86689 1.93146Z" fill="#233266"/>
</g>
<defs>
<clipPath id="clip0_1207_1925">
<rect width="28" height="8.792" fill="white" transform="translate(0 0.5)"/>
</clipPath>
</defs>
</svg>
